<svg width="900" height="400" xmlns="http://www.w3.org/2000/svg">
  <rect x="20" y="40" width="180" height="60" fill="#e0e0e0" stroke="#888"/>
  <text x="110" y="75" font-size="16" text-anchor="middle">Modern Client</text>
  <rect x="20" y="140" width="180" height="60" fill="#e0e0e0" stroke="#888"/>
  <text x="110" y="175" font-size="16" text-anchor="middle">Legacy Client (LU6.2)</text>
  <rect x="20" y="240" width="180" height="60" fill="#e0e0e0" stroke="#888"/>
  <text x="110" y="275" font-size="16" text-anchor="middle">Legacy Client (MQ)</text>

  <rect x="250" y="120" width="200" height="120" fill="#b3d1ff" stroke="#3366cc"/>
  <text x="350" y="155" font-size="16" text-anchor="middle">NEO6 Proxy</text>
  <text x="350" y="175" font-size="12" text-anchor="middle">(REST, TCP, MQ)</text>

  <rect x="500" y="120" width="160" height="60" fill="#ffe0b3" stroke="#cc9900"/>
  <text x="580" y="155" font-size="16" text-anchor="middle">Protocol Adapter</text>

  <rect x="700" y="60" width="160" height="60" fill="#c8e6c9" stroke="#388e3c"/>
  <text x="780" y="95" font-size="16" text-anchor="middle">COBOL Backend</text>

  <rect x="700" y="200" width="160" height="60" fill="#f8bbd0" stroke="#ad1457"/>
  <text x="780" y="235" font-size="16" text-anchor="middle">Microservices</text>

  <!-- Arrows -->
  <line x1="200" y1="70" x2="250" y2="150" stroke="#333" stroke-width="2" marker-end="url(#arrow)"/>
  <line x1="200" y1="170" x2="250" y2="170" stroke="#333" stroke-width="2" marker-end="url(#arrow)"/>
  <line x1="200" y1="270" x2="250" y2="190" stroke="#333" stroke-width="2" marker-end="url(#arrow)"/>
  <line x1="450" y1="180" x2="500" y2="150" stroke="#333" stroke-width="2" marker-end="url(#arrow)"/>
  <line x1="660" y1="150" x2="700" y2="90" stroke="#333" stroke-width="2" marker-end="url(#arrow)"/>
  <line x1="660" y1="150" x2="700" y2="230" stroke="#333" stroke-width="2" marker-end="url(#arrow)"/>

  <defs>
    <marker id="arrow" markerWidth="10" markerHeight="10" refX="10" refY="5" orient="auto" markerUnits="strokeWidth">
      <path d="M0,0 L10,5 L0,10 L2,5 z" fill="#333" />
    </marker>
  </defs>
</svg>
